<svg width="229" height="34" viewBox="0 0 229 34" fill="none" xmlns="http://www.w3.org/2000/svg">
<rect y="1" width="229" height="33" rx="2" fill="#5A8DCA"/>
<path fill-rule="evenodd" clip-rule="evenodd" d="M28.75 33V20.928V20.816V20.8159V20.75V19.5V11.25V11.1841V11.184C28.75 10.2976 28.7501 9.53384 28.6679 8.92221C28.5797 8.26669 28.381 7.63834 27.8713 7.12868C27.3617 6.61902 26.7333 6.42027 26.0778 6.33214C25.4661 6.24991 24.7023 6.24995 23.8158 6.25L23.75 6.25H0.25L0.18417 6.25H0.184164C0.122173 6.24999 0.0607813 6.24999 0 6.25002V8.25009C0.0807237 8.25002 0.164016 8.25 0.25 8.25H23.75C24.7211 8.25 25.3488 8.25212 25.8113 8.31431C26.245 8.37262 26.381 8.46677 26.4571 8.54289C26.5332 8.61902 26.6274 8.75496 26.6857 9.1887C26.7479 9.65121 26.75 10.2789 26.75 11.25V19.5V20.75C26.75 21.7211 26.7479 22.3488 26.6857 22.8113C26.6274 23.245 26.5332 23.381 26.4571 23.4571C26.381 23.5332 26.245 23.6274 25.8113 23.6857C25.3488 23.7479 24.7211 23.75 23.75 23.75H20.4415L20.3989 23.75C20.0882 23.7499 19.777 23.7499 19.5127 23.78C19.2107 23.8145 18.8716 23.8967 18.5513 24.1275C18.2311 24.3583 18.0459 24.654 17.9177 24.9296C17.8055 25.1709 17.7072 25.466 17.6089 25.7609L17.5955 25.8013L16.7572 28.3162C16.6399 28.6681 16.577 28.8518 16.5189 28.9768L16.5164 28.9822L16.5105 28.9829C16.3736 28.9985 16.1794 29 15.8085 29H8.19152C7.82063 29 7.62643 28.9985 7.48953 28.9829L7.48361 28.9822L7.48108 28.9768C7.42297 28.8518 7.36012 28.6681 7.24284 28.3162L6.40453 25.8013L6.39108 25.7609L6.39106 25.7609L6.39105 25.7609C6.29284 25.466 6.19452 25.1709 6.0823 24.9296C5.95409 24.654 5.76892 24.3583 5.44866 24.1275C5.1284 23.8967 4.78932 23.8145 4.48734 23.78C4.22298 23.7499 3.91184 23.7499 3.60107 23.75L3.55848 23.75H0.25C0.164016 23.75 0.0807237 23.75 0 23.7499V25.75C0.060782 25.75 0.122174 25.75 0.184166 25.75L0.25 25.75H3.55848C3.92937 25.75 4.12357 25.7515 4.26047 25.7671L4.26639 25.7678L4.26892 25.7732C4.32703 25.8982 4.38988 26.0819 4.50716 26.4338L5.34547 28.9487L5.35894 28.9891L5.35895 28.9891C5.45716 29.284 5.55548 29.5791 5.6677 29.8204C5.79591 30.096 5.98108 30.3917 6.30134 30.6225C6.6216 30.8533 6.96068 30.9355 7.26266 30.97C7.52699 31.0001 7.83809 31.0001 8.14883 31H8.14894L8.19152 31H15.8085L15.8511 31H15.8512C16.1619 31.0001 16.473 31.0001 16.7373 30.97C17.0393 30.9355 17.3784 30.8533 17.6987 30.6225C18.0189 30.3917 18.2041 30.096 18.3323 29.8204C18.4445 29.5791 18.5428 29.284 18.641 28.9892L18.6411 28.9891L18.6545 28.9487L19.4928 26.4338C19.6101 26.0819 19.673 25.8982 19.7311 25.7732L19.7336 25.7678L19.7395 25.7671C19.8764 25.7515 20.0706 25.75 20.4415 25.75H23.75L23.8158 25.75C24.7023 25.7501 25.4661 25.7501 26.0778 25.6679C26.3065 25.6371 26.5318 25.5929 26.75 25.5267V33H28.75Z" fill="white"/>
<path d="M101.398 23H98.375L102.301 11.3636H106.045L109.972 23H106.949L104.216 14.2955H104.125L101.398 23ZM100.994 18.4205H107.312V20.5568H100.994V18.4205ZM111.224 23V14.2727H113.923V15.8636H114.014C114.173 15.2879 114.433 14.8598 114.793 14.5795C115.152 14.2955 115.571 14.1534 116.048 14.1534C116.177 14.1534 116.31 14.1629 116.446 14.1818C116.582 14.197 116.709 14.2216 116.827 14.2557V16.6705C116.694 16.625 116.52 16.589 116.304 16.5625C116.092 16.536 115.902 16.5227 115.736 16.5227C115.406 16.5227 115.109 16.5966 114.844 16.7443C114.582 16.8883 114.376 17.0909 114.224 17.3523C114.077 17.6098 114.003 17.9129 114.003 18.2614V23H111.224ZM121.58 23.1648C120.659 23.1648 119.869 22.9754 119.21 22.5966C118.555 22.2178 118.051 21.6913 117.699 21.017C117.347 20.339 117.17 19.5549 117.17 18.6648C117.17 17.7708 117.347 16.9867 117.699 16.3125C118.055 15.6345 118.561 15.1061 119.216 14.7273C119.875 14.3485 120.661 14.1591 121.574 14.1591C122.381 14.1591 123.083 14.3049 123.682 14.5966C124.284 14.8883 124.754 15.3011 125.091 15.8352C125.432 16.3655 125.612 16.9886 125.631 17.7045H123.034C122.981 17.2576 122.83 16.9072 122.58 16.6534C122.333 16.3996 122.011 16.2727 121.614 16.2727C121.292 16.2727 121.009 16.3636 120.767 16.5455C120.525 16.7235 120.335 16.9886 120.199 17.3409C120.066 17.6894 120 18.1212 120 18.6364C120 19.1515 120.066 19.5871 120.199 19.9432C120.335 20.2955 120.525 20.5625 120.767 20.7443C121.009 20.9223 121.292 21.0114 121.614 21.0114C121.871 21.0114 122.098 20.9564 122.295 20.8466C122.496 20.7367 122.661 20.5758 122.79 20.3636C122.919 20.1477 123 19.8864 123.034 19.5795H125.631C125.604 20.2992 125.424 20.928 125.091 21.4659C124.761 22.0038 124.297 22.4223 123.699 22.7216C123.104 23.017 122.398 23.1648 121.58 23.1648ZM129.831 18.0227V23H127.053V11.3636H129.74V15.875H129.837C130.034 15.3371 130.356 14.9167 130.803 14.6136C131.253 14.3106 131.804 14.1591 132.456 14.1591C133.07 14.1591 133.604 14.2955 134.058 14.5682C134.513 14.8371 134.865 15.2178 135.115 15.7102C135.369 16.2027 135.494 16.7784 135.49 17.4375V23H132.712V17.983C132.715 17.4981 132.594 17.1193 132.348 16.8466C132.102 16.5739 131.755 16.4375 131.308 16.4375C131.017 16.4375 130.759 16.5019 130.536 16.6307C130.316 16.7557 130.143 16.9356 130.018 17.1705C129.897 17.4053 129.835 17.6894 129.831 18.0227ZM137.224 23V14.2727H140.003V23H137.224ZM138.616 13.2557C138.226 13.2557 137.891 13.1269 137.611 12.8693C137.33 12.608 137.19 12.2936 137.19 11.9261C137.19 11.5625 137.33 11.2519 137.611 10.9943C137.891 10.733 138.226 10.6023 138.616 10.6023C139.01 10.6023 139.346 10.733 139.622 10.9943C139.902 11.2519 140.043 11.5625 140.043 11.9261C140.043 12.2936 139.902 12.608 139.622 12.8693C139.346 13.1269 139.01 13.2557 138.616 13.2557ZM150.237 14.2727L147.243 23H144.061L141.072 14.2727H143.999L145.607 20.2841H145.697L147.311 14.2727H150.237ZM155.101 23.1648C154.188 23.1648 153.4 22.9848 152.737 22.625C152.078 22.2614 151.571 21.7443 151.214 21.0739C150.862 20.3996 150.686 19.5985 150.686 18.6705C150.686 17.7689 150.864 16.9811 151.22 16.3068C151.576 15.6288 152.078 15.1023 152.726 14.7273C153.374 14.3485 154.137 14.1591 155.016 14.1591C155.637 14.1591 156.205 14.2557 156.72 14.4489C157.235 14.642 157.68 14.928 158.055 15.3068C158.43 15.6856 158.722 16.1534 158.93 16.7102C159.139 17.2633 159.243 17.8977 159.243 18.6136V19.3068H151.658V17.6932H156.658C156.654 17.3977 156.584 17.1345 156.447 16.9034C156.311 16.6723 156.124 16.4924 155.885 16.3636C155.65 16.2311 155.379 16.1648 155.072 16.1648C154.762 16.1648 154.483 16.2348 154.237 16.375C153.991 16.5114 153.796 16.6989 153.652 16.9375C153.508 17.1723 153.432 17.4394 153.425 17.7386V19.3807C153.425 19.7367 153.495 20.0492 153.635 20.3182C153.775 20.5833 153.974 20.7898 154.232 20.9375C154.489 21.0852 154.796 21.1591 155.152 21.1591C155.398 21.1591 155.622 21.125 155.822 21.0568C156.023 20.9886 156.196 20.8883 156.339 20.7557C156.483 20.6231 156.591 20.4602 156.663 20.267L159.214 20.3409C159.108 20.9129 158.875 21.411 158.516 21.8352C158.16 22.2557 157.692 22.5833 157.112 22.8182C156.533 23.0492 155.862 23.1648 155.101 23.1648ZM163.849 23.125C163.205 23.125 162.62 22.9583 162.094 22.625C161.567 22.2917 161.147 21.7917 160.832 21.125C160.518 20.4583 160.361 19.6307 160.361 18.642C160.361 17.6155 160.524 16.7708 160.849 16.108C161.175 15.4451 161.601 14.9545 162.128 14.6364C162.658 14.3182 163.228 14.1591 163.838 14.1591C164.296 14.1591 164.688 14.2386 165.014 14.3977C165.34 14.553 165.609 14.7538 165.821 15C166.033 15.2462 166.194 15.5019 166.304 15.767H166.361V11.3636H169.139V23H166.389V21.5852H166.304C166.187 21.8542 166.02 22.1061 165.804 22.3409C165.588 22.5758 165.317 22.7652 164.991 22.9091C164.67 23.053 164.289 23.125 163.849 23.125ZM164.815 20.9602C165.152 20.9602 165.44 20.8655 165.679 20.6761C165.918 20.483 166.101 20.2121 166.23 19.8636C166.359 19.5152 166.423 19.1061 166.423 18.6364C166.423 18.1591 166.359 17.7481 166.23 17.4034C166.105 17.0587 165.921 16.7936 165.679 16.608C165.44 16.4223 165.152 16.3295 164.815 16.3295C164.471 16.3295 164.179 16.4242 163.94 16.6136C163.702 16.803 163.52 17.0701 163.395 17.4148C163.274 17.7595 163.213 18.1667 163.213 18.6364C163.213 19.1061 163.276 19.5152 163.401 19.8636C163.526 20.2121 163.705 20.483 163.94 20.6761C164.179 20.8655 164.471 20.9602 164.815 20.9602ZM174.334 23V11.3636H179.141C180.012 11.3636 180.764 11.5341 181.396 11.875C182.033 12.2121 182.523 12.6837 182.868 13.2898C183.213 13.892 183.385 14.5928 183.385 15.392C183.385 16.1951 183.209 16.8977 182.857 17.5C182.508 18.0985 182.01 18.5625 181.362 18.892C180.714 19.2216 179.946 19.3864 179.055 19.3864H176.089V17.1705H178.533C178.957 17.1705 179.311 17.0966 179.595 16.9489C179.883 16.8011 180.101 16.5947 180.249 16.3295C180.396 16.0606 180.47 15.7481 180.47 15.392C180.47 15.0322 180.396 14.7216 180.249 14.4602C180.101 14.1951 179.883 13.9905 179.595 13.8466C179.307 13.7027 178.953 13.6307 178.533 13.6307H177.146V23H174.334ZM188.673 23.1648C187.757 23.1648 186.969 22.9773 186.31 22.6023C185.654 22.2235 185.149 21.697 184.793 21.0227C184.44 20.3447 184.264 19.5587 184.264 18.6648C184.264 17.767 184.44 16.9811 184.793 16.3068C185.149 15.6288 185.654 15.1023 186.31 14.7273C186.969 14.3485 187.757 14.1591 188.673 14.1591C189.59 14.1591 190.376 14.3485 191.031 14.7273C191.69 15.1023 192.196 15.6288 192.548 16.3068C192.904 16.9811 193.082 17.767 193.082 18.6648C193.082 19.5587 192.904 20.3447 192.548 21.0227C192.196 21.697 191.69 22.2235 191.031 22.6023C190.376 22.9773 189.59 23.1648 188.673 23.1648ZM188.69 21.0682C189.024 21.0682 189.306 20.9659 189.537 20.7614C189.768 20.5568 189.944 20.2727 190.065 19.9091C190.19 19.5455 190.253 19.125 190.253 18.6477C190.253 18.1629 190.19 17.7386 190.065 17.375C189.944 17.0114 189.768 16.7273 189.537 16.5227C189.306 16.3182 189.024 16.2159 188.69 16.2159C188.346 16.2159 188.054 16.3182 187.815 16.5227C187.58 16.7273 187.401 17.0114 187.276 17.375C187.154 17.7386 187.094 18.1629 187.094 18.6477C187.094 19.125 187.154 19.5455 187.276 19.9091C187.401 20.2727 187.58 20.5568 187.815 20.7614C188.054 20.9659 188.346 21.0682 188.69 21.0682ZM202.125 16.9375L199.574 17.0057C199.547 16.8239 199.475 16.6629 199.358 16.5227C199.241 16.3788 199.087 16.267 198.898 16.1875C198.712 16.1042 198.496 16.0625 198.25 16.0625C197.928 16.0625 197.653 16.1269 197.426 16.2557C197.203 16.3845 197.093 16.5587 197.097 16.7784C197.093 16.9489 197.161 17.0966 197.301 17.2216C197.445 17.3466 197.701 17.447 198.068 17.5227L199.75 17.8409C200.621 18.0076 201.269 18.2841 201.693 18.6705C202.121 19.0568 202.337 19.5682 202.341 20.2045C202.337 20.803 202.159 21.3239 201.807 21.767C201.458 22.2102 200.981 22.5549 200.375 22.8011C199.769 23.0436 199.076 23.1648 198.295 23.1648C197.049 23.1648 196.066 22.9091 195.347 22.3977C194.631 21.8826 194.222 21.1932 194.119 20.3295L196.864 20.2614C196.924 20.5795 197.081 20.822 197.335 20.9886C197.589 21.1553 197.913 21.2386 198.307 21.2386C198.663 21.2386 198.953 21.1723 199.176 21.0398C199.4 20.9072 199.513 20.7311 199.517 20.5114C199.513 20.3144 199.426 20.1572 199.256 20.0398C199.085 19.9186 198.818 19.8239 198.455 19.7557L196.932 19.4659C196.057 19.3068 195.405 19.0133 194.977 18.5852C194.549 18.1534 194.337 17.6042 194.341 16.9375C194.337 16.3542 194.492 15.8561 194.807 15.4432C195.121 15.0265 195.568 14.7083 196.148 14.4886C196.727 14.2689 197.411 14.1591 198.199 14.1591C199.381 14.1591 200.313 14.4072 200.994 14.9034C201.676 15.3958 202.053 16.0739 202.125 16.9375ZM208.635 14.2727V16.3182H203.129V14.2727H208.635ZM204.283 12.1818H207.061V20.2557C207.061 20.4261 207.088 20.5644 207.141 20.6705C207.197 20.7727 207.279 20.8466 207.385 20.892C207.491 20.9337 207.618 20.9545 207.766 20.9545C207.872 20.9545 207.983 20.9451 208.101 20.9261C208.222 20.9034 208.313 20.8845 208.374 20.8693L208.794 22.875C208.661 22.9129 208.474 22.9602 208.232 23.017C207.993 23.0739 207.707 23.1098 207.374 23.125C206.722 23.1553 206.163 23.0795 205.697 22.8977C205.235 22.7121 204.881 22.4242 204.635 22.0341C204.393 21.6439 204.275 21.1534 204.283 20.5625V12.1818ZM217.562 16.9375L215.011 17.0057C214.985 16.8239 214.913 16.6629 214.795 16.5227C214.678 16.3788 214.525 16.267 214.335 16.1875C214.15 16.1042 213.934 16.0625 213.688 16.0625C213.366 16.0625 213.091 16.1269 212.864 16.2557C212.64 16.3845 212.53 16.5587 212.534 16.7784C212.53 16.9489 212.598 17.0966 212.739 17.2216C212.883 17.3466 213.138 17.447 213.506 17.5227L215.188 17.8409C216.059 18.0076 216.706 18.2841 217.131 18.6705C217.559 19.0568 217.775 19.5682 217.778 20.2045C217.775 20.803 217.597 21.3239 217.244 21.767C216.896 22.2102 216.419 22.5549 215.812 22.8011C215.206 23.0436 214.513 23.1648 213.733 23.1648C212.487 23.1648 211.504 22.9091 210.784 22.3977C210.068 21.8826 209.659 21.1932 209.557 20.3295L212.301 20.2614C212.362 20.5795 212.519 20.822 212.773 20.9886C213.027 21.1553 213.35 21.2386 213.744 21.2386C214.1 21.2386 214.39 21.1723 214.614 21.0398C214.837 20.9072 214.951 20.7311 214.955 20.5114C214.951 20.3144 214.864 20.1572 214.693 20.0398C214.523 19.9186 214.256 19.8239 213.892 19.7557L212.369 19.4659C211.494 19.3068 210.843 19.0133 210.415 18.5852C209.987 18.1534 209.775 17.6042 209.778 16.9375C209.775 16.3542 209.93 15.8561 210.244 15.4432C210.559 15.0265 211.006 14.7083 211.585 14.4886C212.165 14.2689 212.848 14.1591 213.636 14.1591C214.818 14.1591 215.75 14.4072 216.432 14.9034C217.114 15.3958 217.491 16.0739 217.562 16.9375Z" fill="white"/>
</svg>
