<svg width="229" height="33" viewBox="0 0 229 33" fill="none" xmlns="http://www.w3.org/2000/svg">
<rect x="0.5" y="0.5" width="228" height="32" rx="1.5" stroke="#5ACA72" stroke-linecap="square" stroke-dasharray="4 4"/>
<path d="M100.443 14.5795H97.6023C97.5644 14.2879 97.4867 14.0246 97.3693 13.7898C97.2519 13.5549 97.0966 13.3542 96.9034 13.1875C96.7102 13.0208 96.4811 12.8939 96.2159 12.8068C95.9545 12.7159 95.6648 12.6705 95.3466 12.6705C94.7822 12.6705 94.2955 12.8087 93.8864 13.0852C93.4811 13.3617 93.1686 13.7614 92.9489 14.2841C92.733 14.8068 92.625 15.4394 92.625 16.1818C92.625 16.9545 92.7348 17.6023 92.9545 18.125C93.178 18.6439 93.4905 19.036 93.892 19.3011C94.2973 19.5625 94.7765 19.6932 95.3295 19.6932C95.6402 19.6932 95.9223 19.6534 96.1761 19.5739C96.4337 19.4943 96.6591 19.3788 96.8523 19.2273C97.0492 19.072 97.2102 18.8845 97.3352 18.6648C97.464 18.4413 97.553 18.1894 97.6023 17.9091L100.443 17.9261C100.394 18.4413 100.244 18.9489 99.9943 19.4489C99.7481 19.9489 99.4091 20.4053 98.9773 20.8182C98.5455 21.2273 98.0189 21.553 97.3977 21.7955C96.7803 22.0379 96.072 22.1591 95.2727 22.1591C94.2197 22.1591 93.2765 21.928 92.4432 21.4659C91.6136 21 90.9583 20.322 90.4773 19.4318C89.9962 18.5417 89.7557 17.4583 89.7557 16.1818C89.7557 14.9015 90 13.8163 90.4886 12.9261C90.9773 12.036 91.6383 11.3598 92.4716 10.8977C93.3049 10.4356 94.2386 10.2045 95.2727 10.2045C95.9773 10.2045 96.6288 10.303 97.2273 10.5C97.8258 10.6932 98.3523 10.9773 98.8068 11.3523C99.2614 11.7235 99.6307 12.1799 99.9148 12.7216C100.199 13.2633 100.375 13.8826 100.443 14.5795ZM102.053 22V13.2727H104.751V14.8636H104.842C105.001 14.2879 105.261 13.8598 105.621 13.5795C105.981 13.2955 106.399 13.1534 106.876 13.1534C107.005 13.1534 107.138 13.1629 107.274 13.1818C107.411 13.197 107.537 13.2216 107.655 13.2557V15.6705C107.522 15.625 107.348 15.589 107.132 15.5625C106.92 15.536 106.731 15.5227 106.564 15.5227C106.234 15.5227 105.937 15.5966 105.672 15.7443C105.411 15.8883 105.204 16.0909 105.053 16.3523C104.905 16.6098 104.831 16.9129 104.831 17.2614V22H102.053ZM112.413 22.1648C111.5 22.1648 110.713 21.9848 110.05 21.625C109.391 21.2614 108.883 20.7443 108.527 20.0739C108.175 19.3996 107.999 18.5985 107.999 17.6705C107.999 16.7689 108.177 15.9811 108.533 15.3068C108.889 14.6288 109.391 14.1023 110.038 13.7273C110.686 13.3485 111.449 13.1591 112.328 13.1591C112.949 13.1591 113.518 13.2557 114.033 13.4489C114.548 13.642 114.993 13.928 115.368 14.3068C115.743 14.6856 116.035 15.1534 116.243 15.7102C116.451 16.2633 116.555 16.8977 116.555 17.6136V18.3068H108.97V16.6932H113.97C113.966 16.3977 113.896 16.1345 113.76 15.9034C113.624 15.6723 113.436 15.4924 113.197 15.3636C112.963 15.2311 112.692 15.1648 112.385 15.1648C112.074 15.1648 111.796 15.2348 111.55 15.375C111.304 15.5114 111.108 15.6989 110.964 15.9375C110.821 16.1723 110.745 16.4394 110.737 16.7386V18.3807C110.737 18.7367 110.807 19.0492 110.947 19.3182C111.088 19.5833 111.286 19.7898 111.544 19.9375C111.802 20.0852 112.108 20.1591 112.464 20.1591C112.711 20.1591 112.934 20.125 113.135 20.0568C113.336 19.9886 113.508 19.8883 113.652 19.7557C113.796 19.6231 113.904 19.4602 113.976 19.267L116.527 19.3409C116.421 19.9129 116.188 20.411 115.828 20.8352C115.472 21.2557 115.004 21.5833 114.425 21.8182C113.845 22.0492 113.175 22.1648 112.413 22.1648ZM120.435 22.1477C119.878 22.1477 119.384 22.0549 118.952 21.8693C118.524 21.6799 118.185 21.3958 117.935 21.017C117.688 20.6345 117.565 20.1553 117.565 19.5795C117.565 19.0947 117.651 18.6856 117.821 18.3523C117.991 18.0189 118.226 17.7481 118.526 17.5398C118.825 17.3314 119.17 17.1742 119.56 17.0682C119.95 16.9583 120.366 16.8845 120.81 16.8466C121.306 16.8011 121.705 16.7538 122.009 16.7045C122.312 16.6515 122.531 16.5777 122.668 16.483C122.808 16.3845 122.878 16.2462 122.878 16.0682V16.0398C122.878 15.7481 122.777 15.5227 122.577 15.3636C122.376 15.2045 122.105 15.125 121.764 15.125C121.397 15.125 121.101 15.2045 120.878 15.3636C120.654 15.5227 120.512 15.7424 120.452 16.0227L117.889 15.9318C117.965 15.4015 118.16 14.928 118.474 14.5114C118.793 14.0909 119.228 13.7614 119.781 13.5227C120.338 13.2803 121.007 13.1591 121.787 13.1591C122.344 13.1591 122.857 13.2254 123.327 13.358C123.796 13.4867 124.205 13.6761 124.554 13.9261C124.902 14.1723 125.171 14.4754 125.361 14.8352C125.554 15.1951 125.651 15.6061 125.651 16.0682V22H123.037V20.7841H122.969C122.813 21.0795 122.615 21.3295 122.372 21.5341C122.134 21.7386 121.851 21.892 121.526 21.9943C121.204 22.0966 120.84 22.1477 120.435 22.1477ZM121.293 20.3295C121.592 20.3295 121.861 20.2689 122.099 20.1477C122.342 20.0265 122.535 19.8598 122.679 19.6477C122.823 19.4318 122.895 19.1818 122.895 18.8977V18.0682C122.815 18.1098 122.719 18.1477 122.605 18.1818C122.495 18.2159 122.374 18.2481 122.241 18.2784C122.109 18.3087 121.973 18.3352 121.832 18.358C121.692 18.3807 121.558 18.4015 121.429 18.4205C121.168 18.4621 120.944 18.5265 120.759 18.6136C120.577 18.7008 120.437 18.8144 120.338 18.9545C120.243 19.0909 120.196 19.2538 120.196 19.4432C120.196 19.7311 120.298 19.9508 120.503 20.1023C120.711 20.2538 120.974 20.3295 121.293 20.3295ZM132.276 13.2727V15.3182H126.77V13.2727H132.276ZM127.923 11.1818H130.702V19.2557C130.702 19.4261 130.728 19.5644 130.781 19.6705C130.838 19.7727 130.92 19.8466 131.026 19.892C131.132 19.9337 131.259 19.9545 131.406 19.9545C131.512 19.9545 131.624 19.9451 131.741 19.9261C131.863 19.9034 131.954 19.8845 132.014 19.8693L132.435 21.875C132.302 21.9129 132.115 21.9602 131.872 22.017C131.634 22.0739 131.348 22.1098 131.014 22.125C130.363 22.1553 129.804 22.0795 129.338 21.8977C128.876 21.7121 128.522 21.4242 128.276 21.0341C128.033 20.6439 127.916 20.1534 127.923 19.5625V11.1818ZM137.679 22.1648C136.766 22.1648 135.978 21.9848 135.315 21.625C134.656 21.2614 134.149 20.7443 133.793 20.0739C133.44 19.3996 133.264 18.5985 133.264 17.6705C133.264 16.7689 133.442 15.9811 133.798 15.3068C134.154 14.6288 134.656 14.1023 135.304 13.7273C135.952 13.3485 136.715 13.1591 137.594 13.1591C138.215 13.1591 138.783 13.2557 139.298 13.4489C139.813 13.642 140.259 13.928 140.634 14.3068C141.009 14.6856 141.3 15.1534 141.509 15.7102C141.717 16.2633 141.821 16.8977 141.821 17.6136V18.3068H134.236V16.6932H139.236C139.232 16.3977 139.162 16.1345 139.026 15.9034C138.889 15.6723 138.702 15.4924 138.463 15.3636C138.228 15.2311 137.957 15.1648 137.651 15.1648C137.34 15.1648 137.062 15.2348 136.815 15.375C136.569 15.5114 136.374 15.6989 136.23 15.9375C136.086 16.1723 136.01 16.4394 136.003 16.7386V18.3807C136.003 18.7367 136.073 19.0492 136.213 19.3182C136.353 19.5833 136.552 19.7898 136.81 19.9375C137.067 20.0852 137.374 20.1591 137.73 20.1591C137.976 20.1591 138.2 20.125 138.401 20.0568C138.601 19.9886 138.774 19.8883 138.918 19.7557C139.062 19.6231 139.17 19.4602 139.241 19.267L141.793 19.3409C141.687 19.9129 141.454 20.411 141.094 20.8352C140.738 21.2557 140.27 21.5833 139.69 21.8182C139.111 22.0492 138.44 22.1648 137.679 22.1648ZM149.456 17.0227V22H146.678V13.2727H149.32V14.875H149.416C149.609 14.3409 149.939 13.9223 150.405 13.6193C150.871 13.3125 151.426 13.1591 152.07 13.1591C152.683 13.1591 153.215 13.2973 153.666 13.5739C154.121 13.8466 154.473 14.2292 154.723 14.7216C154.977 15.2102 155.102 15.7822 155.098 16.4375V22H152.32V16.983C152.323 16.4981 152.2 16.1193 151.95 15.8466C151.704 15.5739 151.361 15.4375 150.922 15.4375C150.63 15.4375 150.373 15.5019 150.149 15.6307C149.929 15.7557 149.759 15.9356 149.638 16.1705C149.52 16.4053 149.46 16.6894 149.456 17.0227ZM160.898 22.1648C159.985 22.1648 159.197 21.9848 158.534 21.625C157.875 21.2614 157.367 20.7443 157.011 20.0739C156.659 19.3996 156.483 18.5985 156.483 17.6705C156.483 16.7689 156.661 15.9811 157.017 15.3068C157.373 14.6288 157.875 14.1023 158.523 13.7273C159.17 13.3485 159.934 13.1591 160.812 13.1591C161.434 13.1591 162.002 13.2557 162.517 13.4489C163.032 13.642 163.477 13.928 163.852 14.3068C164.227 14.6856 164.519 15.1534 164.727 15.7102C164.936 16.2633 165.04 16.8977 165.04 17.6136V18.3068H157.455V16.6932H162.455C162.451 16.3977 162.381 16.1345 162.244 15.9034C162.108 15.6723 161.92 15.4924 161.682 15.3636C161.447 15.2311 161.176 15.1648 160.869 15.1648C160.559 15.1648 160.28 15.2348 160.034 15.375C159.788 15.5114 159.593 15.6989 159.449 15.9375C159.305 16.1723 159.229 16.4394 159.222 16.7386V18.3807C159.222 18.7367 159.292 19.0492 159.432 19.3182C159.572 19.5833 159.771 19.7898 160.028 19.9375C160.286 20.0852 160.593 20.1591 160.949 20.1591C161.195 20.1591 161.419 20.125 161.619 20.0568C161.82 19.9886 161.992 19.8883 162.136 19.7557C162.28 19.6231 162.388 19.4602 162.46 19.267L165.011 19.3409C164.905 19.9129 164.672 20.411 164.312 20.8352C163.956 21.2557 163.489 21.5833 162.909 21.8182C162.33 22.0492 161.659 22.1648 160.898 22.1648ZM167.996 22L165.723 13.2727H168.513L169.689 18.8636H169.763L171.024 13.2727H173.746L175.041 18.8239H175.115L176.257 13.2727H179.047L176.768 22H173.797L172.433 16.9148H172.337L170.973 22H167.996ZM183.599 25.2727V13.2727H186.349V14.767H186.435C186.548 14.5019 186.709 14.2462 186.918 14C187.13 13.7538 187.399 13.553 187.724 13.3977C188.054 13.2386 188.448 13.1591 188.906 13.1591C189.512 13.1591 190.079 13.3182 190.605 13.6364C191.135 13.9545 191.563 14.4451 191.889 15.108C192.215 15.7708 192.378 16.6155 192.378 17.642C192.378 18.6307 192.221 19.4583 191.906 20.125C191.596 20.7917 191.175 21.2917 190.645 21.625C190.118 21.9583 189.533 22.125 188.889 22.125C188.45 22.125 188.069 22.053 187.747 21.9091C187.425 21.7652 187.154 21.5758 186.935 21.3409C186.719 21.1061 186.552 20.8542 186.435 20.5852H186.378V25.2727H183.599ZM186.321 17.6364C186.321 18.1061 186.384 18.5152 186.509 18.8636C186.637 19.2121 186.821 19.483 187.06 19.6761C187.302 19.8655 187.592 19.9602 187.929 19.9602C188.27 19.9602 188.56 19.8655 188.798 19.6761C189.037 19.483 189.217 19.2121 189.338 18.8636C189.463 18.5152 189.526 18.1061 189.526 17.6364C189.526 17.1667 189.463 16.7595 189.338 16.4148C189.217 16.0701 189.037 15.803 188.798 15.6136C188.563 15.4242 188.274 15.3295 187.929 15.3295C187.588 15.3295 187.298 15.4223 187.06 15.608C186.821 15.7936 186.637 16.0587 186.509 16.4034C186.384 16.7481 186.321 17.1591 186.321 17.6364ZM197.908 22.1648C196.991 22.1648 196.203 21.9773 195.544 21.6023C194.889 21.2235 194.383 20.697 194.027 20.0227C193.675 19.3447 193.499 18.5587 193.499 17.6648C193.499 16.767 193.675 15.9811 194.027 15.3068C194.383 14.6288 194.889 14.1023 195.544 13.7273C196.203 13.3485 196.991 13.1591 197.908 13.1591C198.824 13.1591 199.61 13.3485 200.266 13.7273C200.925 14.1023 201.43 14.6288 201.783 15.3068C202.139 15.9811 202.317 16.767 202.317 17.6648C202.317 18.5587 202.139 19.3447 201.783 20.0227C201.43 20.697 200.925 21.2235 200.266 21.6023C199.61 21.9773 198.824 22.1648 197.908 22.1648ZM197.925 20.0682C198.258 20.0682 198.54 19.9659 198.771 19.7614C199.002 19.5568 199.179 19.2727 199.3 18.9091C199.425 18.5455 199.487 18.125 199.487 17.6477C199.487 17.1629 199.425 16.7386 199.3 16.375C199.179 16.0114 199.002 15.7273 198.771 15.5227C198.54 15.3182 198.258 15.2159 197.925 15.2159C197.58 15.2159 197.288 15.3182 197.05 15.5227C196.815 15.7273 196.635 16.0114 196.51 16.375C196.389 16.7386 196.328 17.1629 196.328 17.6477C196.328 18.125 196.389 18.5455 196.51 18.9091C196.635 19.2727 196.815 19.5568 197.05 19.7614C197.288 19.9659 197.58 20.0682 197.925 20.0682ZM211.359 15.9375L208.808 16.0057C208.782 15.8239 208.71 15.6629 208.592 15.5227C208.475 15.3788 208.321 15.267 208.132 15.1875C207.946 15.1042 207.731 15.0625 207.484 15.0625C207.162 15.0625 206.888 15.1269 206.661 15.2557C206.437 15.3845 206.327 15.5587 206.331 15.7784C206.327 15.9489 206.395 16.0966 206.536 16.2216C206.679 16.3466 206.935 16.447 207.303 16.5227L208.984 16.8409C209.856 17.0076 210.503 17.2841 210.928 17.6705C211.356 18.0568 211.571 18.5682 211.575 19.2045C211.571 19.803 211.393 20.3239 211.041 20.767C210.693 21.2102 210.215 21.5549 209.609 21.8011C209.003 22.0436 208.31 22.1648 207.53 22.1648C206.284 22.1648 205.301 21.9091 204.581 21.3977C203.865 20.8826 203.456 20.1932 203.354 19.3295L206.098 19.2614C206.159 19.5795 206.316 19.822 206.57 19.9886C206.823 20.1553 207.147 20.2386 207.541 20.2386C207.897 20.2386 208.187 20.1723 208.411 20.0398C208.634 19.9072 208.748 19.7311 208.751 19.5114C208.748 19.3144 208.661 19.1572 208.49 19.0398C208.32 18.9186 208.053 18.8239 207.689 18.7557L206.166 18.4659C205.291 18.3068 204.64 18.0133 204.212 17.5852C203.784 17.1534 203.571 16.6042 203.575 15.9375C203.571 15.3542 203.727 14.8561 204.041 14.4432C204.356 14.0265 204.803 13.7083 205.382 13.4886C205.962 13.2689 206.645 13.1591 207.433 13.1591C208.615 13.1591 209.547 13.4072 210.229 13.9034C210.911 14.3958 211.287 15.0739 211.359 15.9375ZM217.869 13.2727V15.3182H212.364V13.2727H217.869ZM213.517 11.1818H216.295V19.2557C216.295 19.4261 216.322 19.5644 216.375 19.6705C216.432 19.7727 216.513 19.8466 216.619 19.892C216.725 19.9337 216.852 19.9545 217 19.9545C217.106 19.9545 217.218 19.9451 217.335 19.9261C217.456 19.9034 217.547 19.8845 217.608 19.8693L218.028 21.875C217.896 21.9129 217.708 21.9602 217.466 22.017C217.227 22.0739 216.941 22.1098 216.608 22.125C215.956 22.1553 215.398 22.0795 214.932 21.8977C214.47 21.7121 214.116 21.4242 213.869 21.0341C213.627 20.6439 213.509 20.1534 213.517 19.5625V11.1818Z" fill="#5ACA72"/>
<path fill-rule="evenodd" clip-rule="evenodd" d="M27.5556 33V29.1111H25.5556V33H27.5556ZM0 9.0815V7.07187C0.808392 6.99995 1.78393 6.99997 2.92943 7L3 7H9.66667V9H3C1.65884 9 0.71638 9.00184 0 9.0815ZM4.44445 20.6667C4.44445 20.1144 4.89216 19.6667 5.44445 19.6667H13.8889C14.4412 19.6667 14.8889 20.1144 14.8889 20.6667C14.8889 21.219 14.4412 21.6667 13.8889 21.6667H5.44445C4.89216 21.6667 4.44445 21.219 4.44445 20.6667ZM4.44445 29.1111C4.44445 28.5588 4.89216 28.1111 5.44445 28.1111H18.1111C18.6634 28.1111 19.1111 28.5588 19.1111 29.1111C19.1111 29.6634 18.6634 30.1111 18.1111 30.1111H5.44445C4.89216 30.1111 4.44445 29.6634 4.44445 29.1111ZM25.4444 8C25.4444 7.44772 24.9967 7 24.4444 7C23.8922 7 23.4444 7.44772 23.4444 8V13.3333H18.1111C17.5588 13.3333 17.1111 13.781 17.1111 14.3333C17.1111 14.8856 17.5588 15.3333 18.1111 15.3333H23.4444V20.6667C23.4444 21.219 23.8922 21.6667 24.4444 21.6667C24.9967 21.6667 25.4444 21.219 25.4444 20.6667V15.3333H30.7778C31.3301 15.3333 31.7778 14.8856 31.7778 14.3333C31.7778 13.781 31.3301 13.3333 30.7778 13.3333H25.4444V8Z" fill="#5ACA72"/>
</svg>
