<svg width="20" height="20" viewBox="0 0 20 20" fill="none" xmlns="http://www.w3.org/2000/svg">
<path d="M11.7801 2.80116L10.7851 2.90066V2.90066L11.7801 2.80116ZM11.7197 2.37987L12.6777 2.09312V2.09312L11.7197 2.37987ZM11.8947 3.55459L10.966 3.92545L10.966 3.92545L11.8947 3.55459ZM13.2178 4.10265L13.6122 5.02157L13.6122 5.02157L13.2178 4.10265ZM13.8315 3.6509L14.4648 4.42486L14.4865 4.40705L14.5073 4.38806L13.8315 3.6509ZM13.8316 3.65089L13.1983 2.87693L13.1766 2.89474L13.1558 2.91374L13.8316 3.65089ZM14.1722 3.39575L13.6975 2.51558L13.6975 2.51558L14.1722 3.39575ZM15.2067 3.44735L15.7666 2.61877L15.7666 2.61877L15.2067 3.44735ZM15.5202 3.73513L14.8131 4.44223L14.8131 4.44223L15.5202 3.73513ZM16.2648 4.47968L16.9719 3.77258L16.9719 3.77258L16.2648 4.47968ZM16.5526 4.79323L15.724 5.3531L15.724 5.3531L16.5526 4.79323ZM16.6042 5.82775L15.724 5.3531V5.3531L16.6042 5.82775ZM16.349 6.16838L15.5751 5.53514L15.5751 5.53514L16.349 6.16838ZM15.8972 6.78216L16.8162 7.17659V7.17659L15.8972 6.78216ZM16.4453 8.10527L16.8162 7.17659L16.8162 7.17659L16.4453 8.10527ZM17.1988 8.21984L17.0993 9.21487H17.0993L17.1988 8.21984ZM17.6201 8.28028L17.9069 7.32228L17.6201 8.28028ZM18.3151 9.04826L19.2969 8.85825V8.85824L18.3151 9.04826ZM18.3151 10.9516L17.3333 10.7616V10.7616L18.3151 10.9516ZM17.62 11.7197L17.9067 12.6777L17.9067 12.6777L17.62 11.7197ZM17.1988 11.7801L17.0993 10.785H17.0993L17.1988 11.7801ZM16.4458 11.8946L16.0751 10.9658H16.0751L16.4458 11.8946ZM15.8976 13.2179L16.8165 12.8233L16.8165 12.8233L15.8976 13.2179ZM16.3491 13.8313L17.1491 13.2313L17.1365 13.2144L17.1231 13.198L16.3491 13.8313ZM16.3491 13.8313L15.5491 14.4313L15.5618 14.4482L15.5752 14.4645L16.3491 13.8313ZM16.6042 14.1717L15.724 14.6464L15.724 14.6464L16.6042 14.1717ZM16.5525 15.2064L15.724 14.6464L15.724 14.6465L16.5525 15.2064ZM16.2649 15.5198L16.972 16.2269V16.2269L16.2649 15.5198ZM15.5203 16.2644L14.8132 15.5573V15.5573L15.5203 16.2644ZM15.2067 16.5522L15.7666 17.3808L15.7666 17.3808L15.2067 16.5522ZM14.1722 16.6038L13.6976 17.484L13.6976 17.484L14.1722 16.6038ZM13.8316 16.3487L14.4648 15.5747L14.427 15.5437L14.3863 15.5166L13.8316 16.3487ZM13.8316 16.3486L13.1914 17.1169L13.2324 17.1511L13.2769 17.1807L13.8316 16.3486ZM13.8316 16.3486L14.4718 15.5804L14.4648 15.5747L13.8316 16.3486ZM13.2178 15.8969L12.8234 16.8158L12.8234 16.8158L13.2178 15.8969ZM11.8947 16.445L10.966 16.0741L10.966 16.0741L11.8947 16.445ZM11.7801 17.1986L12.7752 17.2981V17.2981L11.7801 17.1986ZM11.7196 17.6201L12.6776 17.907L12.6776 17.907L11.7196 17.6201ZM10.9518 18.3151L10.7617 17.3333L10.7617 17.3333L10.9518 18.3151ZM9.04829 18.3151L8.85828 19.2969H8.85828L9.04829 18.3151ZM8.28031 17.6201L7.32231 17.9068L8.28031 17.6201ZM8.21987 17.1988L9.21491 17.0993L9.21165 17.0667L9.20626 17.0344L8.21987 17.1988ZM8.21987 17.1987L7.22483 17.2982L7.22809 17.3308L7.23347 17.3631L8.21987 17.1987ZM8.1053 16.4453L7.17662 16.8161L8.1053 16.4453ZM6.7822 15.8972L7.17662 16.8161L7.17662 16.8161L6.7822 15.8972ZM6.16839 16.349L5.53516 15.575L5.49656 15.6066L5.46129 15.6419L6.16839 16.349ZM6.16838 16.349L6.80162 17.123L6.84022 17.0914L6.87549 17.0561L6.16838 16.349ZM5.82773 16.6042L5.3531 15.724L5.35309 15.724L5.82773 16.6042ZM4.79324 16.5526L5.35309 15.724L5.35309 15.724L4.79324 16.5526ZM4.47967 16.2648L5.18678 15.5577L5.166 15.5369L5.14403 15.5174L4.47967 16.2648ZM4.47966 16.2648L3.77256 16.9719L3.79333 16.9927L3.8153 17.0122L4.47966 16.2648ZM3.73513 15.5202L3.02802 16.2274H3.02802L3.73513 15.5202ZM3.44733 15.2067L2.61875 15.7666L2.61875 15.7666L3.44733 15.2067ZM3.39574 14.1722L4.27592 14.6468L4.27592 14.6468L3.39574 14.1722ZM3.65091 13.8315L4.42487 14.4648L4.42487 14.4648L3.65091 13.8315ZM4.10267 13.2178L3.18375 12.8233L3.18375 12.8233L4.10267 13.2178ZM3.55462 11.8946L3.18375 12.8233L3.18375 12.8233L3.55462 11.8946ZM2.80118 11.7801L2.63338 12.7659L2.66737 12.7717L2.70168 12.7751L2.80118 11.7801ZM2.80117 11.7801L2.96897 10.7943L2.93497 10.7885L2.90066 10.785L2.80117 11.7801ZM2.37991 11.7196L2.66666 10.7616H2.66666L2.37991 11.7196ZM1.68487 10.9516L0.703089 11.1416L0.70309 11.1416L1.68487 10.9516ZM1.68489 9.04819L0.703121 8.85811L0.703121 8.85811L1.68489 9.04819ZM2.37982 8.2803L2.09299 7.32232H2.09299L2.37982 8.2803ZM2.80129 8.21983L2.70178 7.22479H2.70178L2.80129 8.21983ZM3.55505 8.1052L3.92602 9.03385L3.92602 9.03385L3.55505 8.1052ZM4.10304 6.78224L3.18406 7.17656L3.18407 7.17656L4.10304 6.78224ZM3.65106 6.16815L4.42502 5.53491L4.40366 5.50881L4.3806 5.48421L3.65106 6.16815ZM3.65105 6.16814L2.8771 6.80138L2.89845 6.82748L2.92152 6.85208L3.65105 6.16814ZM3.39572 5.82726L2.51548 6.3018L2.51549 6.3018L3.39572 5.82726ZM3.44731 4.79296L2.61866 4.23319L2.61866 4.23319L3.44731 4.79296ZM3.73527 4.4792L3.02816 3.77209L3.02816 3.77209L3.73527 4.4792ZM4.79327 3.44696L4.23342 2.61837L4.23342 2.61837L4.79327 3.44696ZM5.82776 3.39536L6.3024 2.51518L6.3024 2.51518L5.82776 3.39536ZM6.16849 3.65059L5.53525 4.42455L5.5731 4.45552L5.61379 4.48264L6.16849 3.65059ZM6.16849 3.6506L6.80173 2.87664L6.76388 2.84567L6.72319 2.81855L6.16849 3.6506ZM6.7821 4.10227L6.38755 5.02115L6.38755 5.02115L6.7821 4.10227ZM8.10539 3.55415L7.17666 3.1834L7.17666 3.1834L8.10539 3.55415ZM8.21988 2.80105L7.22484 2.70154V2.70154L8.21988 2.80105ZM8.28028 2.37996L9.23831 2.66663V2.66663L8.28028 2.37996ZM9.04839 1.68483L9.23831 2.66663L9.04839 1.68483ZM10.9517 1.68484L10.7617 2.66663L10.7617 2.66663L10.9517 1.68484ZM12.7751 2.70166C12.7577 2.52695 12.7395 2.29966 12.6777 2.09312L10.7617 2.66662C10.7542 2.64181 10.7553 2.63469 10.7609 2.67587C10.767 2.72151 10.7734 2.7842 10.7851 2.90066L12.7751 2.70166ZM12.8234 3.18373C12.8433 3.2336 12.8378 3.24638 12.8236 3.14492C12.8101 3.04947 12.7967 2.91757 12.7751 2.70165L10.7851 2.90066C10.805 3.0997 10.8227 3.27901 10.8431 3.42379C10.8626 3.56256 10.8937 3.74458 10.966 3.92545L12.8234 3.18373ZM12.8234 3.18373L12.8234 3.18373L10.966 3.92545C11.383 4.96982 12.5789 5.46514 13.6122 5.02157L12.8234 3.18373ZM13.1983 2.87694C13.0304 3.01435 12.9276 3.09815 12.8506 3.15614C12.7688 3.21778 12.774 3.20491 12.8234 3.18373L13.6122 5.02157C13.7912 4.94475 13.9419 4.83804 14.0539 4.75373C14.1706 4.66577 14.31 4.55152 14.4648 4.42486L13.1983 2.87694ZM13.1558 2.91374L13.1558 2.91375L14.5073 4.38806L14.5073 4.38805L13.1558 2.91374ZM13.6975 2.51558C13.5078 2.61791 13.3342 2.76576 13.1983 2.87693L14.4648 4.42485C14.5554 4.35074 14.6042 4.31094 14.6408 4.28302C14.6739 4.25781 14.6696 4.26363 14.6468 4.27592L13.6975 2.51558ZM15.7666 2.61877C15.1498 2.20203 14.3527 2.16227 13.6975 2.51558L14.6468 4.27593L14.6468 4.27593L15.7666 2.61877ZM16.2273 3.02802C16.1032 2.90387 15.9452 2.73948 15.7666 2.61877L14.6468 4.27592C14.6254 4.26142 14.6217 4.25521 14.6521 4.28358C14.6857 4.31501 14.7304 4.35947 14.8131 4.44223L16.2273 3.02802ZM16.9719 3.77258L16.2273 3.02802L14.8131 4.44223L15.5577 5.18679L16.9719 3.77258ZM17.3812 4.23337C17.2604 4.05472 17.096 3.89672 16.9719 3.77258L15.5577 5.18679C15.6404 5.26955 15.6849 5.31421 15.7163 5.34785C15.7447 5.37822 15.7385 5.37456 15.724 5.3531L17.3812 4.23337ZM17.4844 6.30239C17.8376 5.64724 17.7979 4.8501 17.3812 4.23336L15.724 5.3531V5.3531L17.4844 6.30239ZM17.123 6.80162C17.2341 6.66573 17.382 6.49216 17.4844 6.30239L15.724 5.3531C15.7363 5.33031 15.7421 5.32605 15.7169 5.35909C15.689 5.39569 15.6492 5.44455 15.5751 5.53514L17.123 6.80162ZM16.8162 7.17659C16.795 7.22594 16.7821 7.23114 16.8438 7.1493C16.9017 7.0723 16.9856 6.96957 17.123 6.80162L15.5751 5.53514C15.4484 5.68996 15.3341 5.8293 15.2462 5.94609C15.1619 6.05804 15.0551 6.20875 14.9783 6.38773L16.8162 7.17659ZM16.8162 7.17659L14.9783 6.38773C14.5348 7.42109 15.0301 8.6169 16.0744 9.03396L16.8162 7.17659ZM17.2983 7.2248C17.0823 7.20321 16.9504 7.18982 16.855 7.17638C16.7535 7.1621 16.7663 7.15667 16.8162 7.17659L16.0744 9.03396C16.2553 9.10619 16.4373 9.1373 16.5761 9.15684C16.7209 9.17723 16.9002 9.19497 17.0993 9.21487L17.2983 7.2248ZM17.9069 7.32228C17.7003 7.26045 17.473 7.24227 17.2983 7.2248L17.0993 9.21487C17.2157 9.22652 17.2784 9.23293 17.3241 9.23906C17.3653 9.2446 17.3581 9.24571 17.3333 9.23828L17.9069 7.32228ZM19.2969 8.85824C19.1555 8.12749 18.6199 7.53572 17.9069 7.32228L17.3333 9.23828L17.3333 9.23828L19.2969 8.85824ZM19.3333 9.4735C19.3333 9.29791 19.3379 9.06993 19.2969 8.85825L17.3333 9.23828C17.3284 9.21285 17.3302 9.20587 17.3316 9.2474C17.3332 9.29342 17.3333 9.35644 17.3333 9.4735H19.3333ZM19.3333 10.5265V9.4735H17.3333V10.5265H19.3333ZM19.2969 11.1415C19.3379 10.9299 19.3333 10.702 19.3333 10.5265H17.3333C17.3333 10.6435 17.3332 10.7065 17.3316 10.7525C17.3302 10.794 17.3284 10.7871 17.3333 10.7616L19.2969 11.1415ZM17.9067 12.6777C18.6199 12.4643 19.1555 11.8724 19.2969 11.1415L17.3333 10.7616L17.3333 10.7616L17.9067 12.6777ZM17.2983 12.7751C17.473 12.7576 17.7002 12.7395 17.9067 12.6777L17.3333 10.7616C17.3581 10.7542 17.3653 10.7553 17.3241 10.7609C17.2785 10.767 17.2158 10.7734 17.0993 10.785L17.2983 12.7751ZM16.8165 12.8233C16.7666 12.8432 16.7539 12.8378 16.8553 12.8235C16.9507 12.8101 17.0825 12.7967 17.2984 12.7751L17.0993 10.785C16.9004 10.8049 16.7212 10.8227 16.5765 10.843C16.4378 10.8626 16.2558 10.8936 16.0751 10.9658L16.8165 12.8233ZM16.8165 12.8233L16.8165 12.8233L16.0751 10.9658C15.0304 11.3828 14.5349 12.5789 14.9788 13.6125L16.8165 12.8233ZM17.1231 13.198C16.9858 13.0302 16.902 12.9275 16.8441 12.8506C16.7825 12.7688 16.7953 12.774 16.8165 12.8233L14.9788 13.6125C15.0556 13.7913 15.1622 13.9419 15.2465 14.0538C15.3344 14.1705 15.4486 14.3098 15.5752 14.4645L17.1231 13.198ZM17.1491 13.2313L17.1491 13.2313L15.5491 14.4313L15.5491 14.4313L17.1491 13.2313ZM17.4843 13.697C17.382 13.5073 17.2342 13.3338 17.1231 13.1981L15.5752 14.4645C15.6493 14.5551 15.689 14.6039 15.7169 14.6405C15.7421 14.6735 15.7363 14.6692 15.724 14.6464L17.4843 13.697ZM17.3811 15.7664C17.798 15.1495 17.8377 14.3522 17.4843 13.697L15.724 14.6464L17.3811 15.7664ZM16.972 16.2269C17.0961 16.1028 17.2604 15.9449 17.3811 15.7664L15.724 14.6465C15.7385 14.625 15.7447 14.6213 15.7164 14.6517C15.685 14.6853 15.6405 14.7299 15.5578 14.8127L16.972 16.2269ZM16.2274 16.9715L16.972 16.2269L15.5578 14.8127L14.8132 15.5573L16.2274 16.9715ZM15.7666 17.3808C15.9452 17.2601 16.1032 17.0957 16.2274 16.9715L14.8132 15.5573C14.7304 15.6401 14.6857 15.6845 14.6521 15.716C14.6217 15.7443 14.6254 15.7381 14.6469 15.7236L15.7666 17.3808ZM13.6976 17.484C14.3527 17.8373 15.1499 17.7975 15.7666 17.3808L14.6469 15.7236H14.6469L13.6976 17.484ZM13.1984 17.1226C13.3342 17.2338 13.5078 17.3816 13.6976 17.484L14.6469 15.7236C14.6697 15.7359 14.6739 15.7417 14.6409 15.7165C14.6043 15.6886 14.5554 15.6488 14.4648 15.5747L13.1984 17.1226ZM13.2769 17.1807L13.2769 17.1807L14.3863 15.5166L14.3863 15.5166L13.2769 17.1807ZM13.1914 17.1169L13.1914 17.1169L14.4718 15.5804L14.4718 15.5804L13.1914 17.1169ZM12.8234 16.8158C12.774 16.7946 12.7688 16.7818 12.8507 16.8434C12.9277 16.9014 13.0304 16.9852 13.1983 17.1226L14.4648 15.5747C14.31 15.448 14.1707 15.3338 14.0539 15.2458C13.9419 15.1615 13.7912 15.0548 13.6123 14.978L12.8234 16.8158ZM12.8234 16.8158V16.8158L13.6123 14.978C12.5789 14.5344 11.3831 15.0297 10.966 16.0741L12.8234 16.8158ZM12.7752 17.2981C12.7968 17.0821 12.8102 16.9501 12.8236 16.8547C12.8379 16.7532 12.8433 16.7659 12.8234 16.8158L10.966 16.0741C10.8938 16.255 10.8627 16.437 10.8431 16.5758C10.8227 16.7206 10.805 16.9 10.7851 17.0991L12.7752 17.2981ZM12.6776 17.907C12.7395 17.7003 12.7577 17.4729 12.7752 17.2981L10.7851 17.0991C10.7734 17.2156 10.767 17.2784 10.7609 17.324C10.7553 17.3653 10.7542 17.3581 10.7617 17.3333L12.6776 17.907ZM11.1419 19.2968C11.8725 19.1553 12.4641 18.6199 12.6776 17.907L10.7617 17.3333L10.7617 17.3333L11.1419 19.2968ZM10.5263 19.3333C10.702 19.3333 10.9301 19.3378 11.1419 19.2968L10.7617 17.3333C10.7871 17.3284 10.7941 17.3302 10.7525 17.3316C10.7065 17.3332 10.6435 17.3333 10.5263 17.3333V19.3333ZM9.47352 19.3333H10.5263V17.3333H9.47352V19.3333ZM8.85828 19.2969C9.06996 19.3378 9.29794 19.3333 9.47352 19.3333V17.3333C9.35647 17.3333 9.29345 17.3332 9.24743 17.3316C9.2059 17.3302 9.21288 17.3284 9.23831 17.3333L8.85828 19.2969ZM7.32231 17.9068C7.53575 18.6199 8.12752 19.1554 8.85828 19.2969L9.23831 17.3333L9.23831 17.3333L7.32231 17.9068ZM7.22483 17.2983C7.2423 17.473 7.26048 17.7003 7.32231 17.9068L9.23831 17.3333C9.24574 17.3581 9.24463 17.3652 9.23909 17.324C9.23296 17.2784 9.22655 17.2157 9.21491 17.0993L7.22483 17.2983ZM7.23347 17.3631L7.23348 17.3632L9.20626 17.0344L9.20626 17.0344L7.23347 17.3631ZM7.23347 17.3631L7.23347 17.3631L9.20626 17.0344L9.20626 17.0343L7.23347 17.3631ZM7.17662 16.8161C7.1567 16.7663 7.16212 16.7535 7.17641 16.8549C7.18985 16.9504 7.20324 17.0823 7.22483 17.2982L9.2149 17.0992C9.195 16.9002 9.17726 16.7209 9.15687 16.5761C9.13733 16.4373 9.10622 16.2553 9.03398 16.0744L7.17662 16.8161ZM7.17662 16.8161L7.17662 16.8161L9.03398 16.0744C8.61691 15.0301 7.42113 14.5348 6.38778 14.9783L7.17662 16.8161ZM6.80163 17.123C6.96959 16.9855 7.07232 16.9017 7.14933 16.8437C7.23118 16.7821 7.22597 16.795 7.17662 16.8161L6.38778 14.9783C6.20879 15.0551 6.05808 15.1618 5.94613 15.2461C5.82933 15.3341 5.68998 15.4484 5.53516 15.575L6.80163 17.123ZM6.87549 17.0561L6.8755 17.0561L5.46129 15.6419L5.46128 15.6419L6.87549 17.0561ZM6.30235 17.4844C6.49214 17.382 6.66573 17.2342 6.80162 17.123L5.53515 15.575C5.44455 15.6492 5.39569 15.689 5.35908 15.7169C5.32604 15.7421 5.3303 15.7363 5.3531 15.724L6.30235 17.4844ZM4.23338 17.3812C4.85011 17.7979 5.64723 17.8376 6.30236 17.4844L5.35309 15.724H5.35309L4.23338 17.3812ZM3.77256 16.9719C3.89671 17.096 4.05472 17.2605 4.23338 17.3812L5.35309 15.724C5.37456 15.7385 5.37822 15.7447 5.34785 15.7164C5.3142 15.6849 5.26955 15.6405 5.18678 15.5577L3.77256 16.9719ZM3.8153 17.0122L3.8153 17.0122L5.14403 15.5174L5.14403 15.5174L3.8153 17.0122ZM3.02802 16.2274L3.77256 16.9719L5.18677 15.5577L4.44223 14.8131L3.02802 16.2274ZM2.61875 15.7666C2.73946 15.9452 2.90387 16.1032 3.02802 16.2274L4.44223 14.8131C4.35947 14.7304 4.315 14.6857 4.28357 14.6521C4.2552 14.6217 4.26141 14.6254 4.27592 14.6468L2.61875 15.7666ZM2.51556 13.6975C2.16227 14.3527 2.20203 15.1498 2.61875 15.7666L4.27592 14.6468L4.27592 14.6468L2.51556 13.6975ZM2.87695 13.1983C2.76577 13.3342 2.61789 13.5078 2.51556 13.6975L4.27592 14.6468C4.26362 14.6696 4.2578 14.6739 4.28301 14.6408C4.31094 14.6042 4.35074 14.5554 4.42487 14.4648L2.87695 13.1983ZM3.18375 12.8233C3.20493 12.774 3.2178 12.7688 3.15616 12.8506C3.09817 12.9276 3.01437 13.0304 2.87695 13.1983L4.42487 14.4648C4.55154 14.31 4.66579 14.1706 4.75375 14.0538C4.83806 13.9419 4.94477 13.7912 5.0216 13.6122L3.18375 12.8233ZM3.18375 12.8233L3.18375 12.8233L5.0216 13.6122C5.46516 12.5788 4.96984 11.383 3.92548 10.9659L3.18375 12.8233ZM2.70168 12.7751C2.9176 12.7967 3.0495 12.8101 3.14495 12.8235C3.2464 12.8378 3.23362 12.8432 3.18375 12.8233L3.92548 10.966C3.74461 10.8937 3.56259 10.8626 3.42382 10.8431C3.27904 10.8227 3.09972 10.8049 2.90069 10.785L2.70168 12.7751ZM2.63337 12.7659L2.63338 12.7659L2.96898 10.7943L2.96897 10.7943L2.63337 12.7659ZM2.09315 12.6776C2.29969 12.7395 2.52697 12.7576 2.70167 12.7751L2.90066 10.785C2.78421 10.7734 2.72153 10.767 2.6759 10.7609C2.63472 10.7553 2.64185 10.7542 2.66666 10.7616L2.09315 12.6776ZM0.70309 11.1416C0.844516 11.8724 1.38007 12.4642 2.09315 12.6776L2.66666 10.7616H2.66666L0.70309 11.1416ZM0.666656 10.5264C0.666656 10.702 0.662126 10.93 0.703089 11.1416L2.66666 10.7616C2.67158 10.7871 2.66977 10.794 2.66836 10.7525C2.66679 10.7065 2.66666 10.6435 2.66666 10.5264H0.666656ZM0.666656 9.47358V10.5264H2.66666V9.47358H0.666656ZM0.703121 8.85811C0.662122 9.06987 0.666656 9.29793 0.666656 9.47358H2.66666C2.66666 9.35648 2.66679 9.29344 2.66836 9.24741C2.66977 9.20586 2.67158 9.21284 2.66666 9.23828L0.703121 8.85811ZM2.09299 7.32232C1.38005 7.53578 0.844587 8.12746 0.703121 8.85811L2.66666 9.23828L2.66666 9.23828L2.09299 7.32232ZM2.70178 7.22479C2.52701 7.24227 2.29962 7.26045 2.09299 7.32232L2.66666 9.23828C2.64183 9.24571 2.63471 9.2446 2.67591 9.23906C2.72156 9.23292 2.78427 9.22652 2.90079 9.21487L2.70178 7.22479ZM3.18407 7.17656C3.23396 7.15663 3.24674 7.16206 3.14525 7.17635C3.04975 7.1898 2.9178 7.20319 2.70178 7.22479L2.90079 9.21487C3.09991 9.19495 3.27931 9.17721 3.42415 9.15681C3.56298 9.13726 3.74508 9.10613 3.92602 9.03385L3.18407 7.17656ZM3.18407 7.17656H3.18407L3.92602 9.03385C4.97015 8.61673 5.46537 7.42116 5.02201 6.38791L3.18407 7.17656ZM2.8771 6.80138C3.01458 6.96942 3.09844 7.07221 3.15646 7.14925C3.21813 7.23114 3.20525 7.22594 3.18406 7.17656L5.02201 6.38791C4.94517 6.20885 4.83841 6.05807 4.75406 5.94607C4.66606 5.82922 4.55175 5.68981 4.42502 5.53491L2.8771 6.80138ZM2.92152 6.85208L2.92152 6.85209L4.3806 5.48421L4.38059 5.4842L2.92152 6.85208ZM2.51549 6.3018C2.61786 6.4917 2.76583 6.66539 2.8771 6.80138L4.42501 5.5349C4.35084 5.44425 4.31101 5.39535 4.28306 5.35872C4.25783 5.32565 4.26365 5.32991 4.27595 5.35272L2.51549 6.3018ZM2.61866 4.23319C2.2021 4.84983 2.16235 5.64676 2.51548 6.3018L4.27596 5.35272L2.61866 4.23319ZM3.02816 3.77209C2.90393 3.89632 2.73942 4.05442 2.61866 4.23319L4.27595 5.35273C4.26145 5.3742 4.25523 5.37786 4.28361 5.34747C4.31506 5.31381 4.35956 5.26912 4.44237 5.18631L3.02816 3.77209ZM3.02816 3.77209L3.02816 3.77209L4.44237 5.18631L4.44237 5.18631L3.02816 3.77209ZM3.77259 3.02766L3.02816 3.77209L4.44237 5.18631L5.18681 4.44187L3.77259 3.02766ZM4.23342 2.61837C4.05476 2.73909 3.89675 2.9035 3.77259 3.02766L5.18681 4.44187C5.26958 4.3591 5.31423 4.31464 5.34788 4.2832C5.37825 4.25483 5.37459 4.26105 5.35313 4.27555L4.23342 2.61837ZM6.3024 2.51518C5.64726 2.1619 4.85015 2.20166 4.23342 2.61837L5.35313 4.27555H5.35313L6.3024 2.51518ZM6.80172 2.87664C6.6658 2.76542 6.49218 2.61752 6.3024 2.51518L5.35313 4.27555C5.33032 4.26325 5.32607 4.25743 5.35913 4.28265C5.39575 4.31059 5.44463 4.35041 5.53525 4.42455L6.80172 2.87664ZM6.72319 2.81855L6.72319 2.81854L5.61379 4.48264L5.61379 4.48265L6.72319 2.81855ZM7.17666 3.1834C7.226 3.20459 7.2312 3.21745 7.14935 3.15581C7.07236 3.09782 6.96964 3.01402 6.80173 2.87664L5.53525 4.42455C5.69004 4.5512 5.82935 4.66543 5.9461 4.75336C6.058 4.83764 6.20865 4.94433 6.38755 5.02115L7.17666 3.1834ZM7.17666 3.1834V3.1834L6.38755 5.02115C7.42105 5.46492 8.61712 4.96949 9.03412 3.9249L7.17666 3.1834ZM7.22484 2.70154C7.20326 2.91737 7.18988 3.04921 7.17645 3.14462C7.16217 3.24602 7.15676 3.23325 7.17666 3.1834L9.03412 3.9249C9.1063 3.7441 9.13739 3.56216 9.15692 3.42345C9.17729 3.27873 9.19502 3.0995 9.21492 2.90055L7.22484 2.70154ZM7.32225 2.09329C7.26047 2.29974 7.24231 2.52692 7.22484 2.70154L9.21492 2.90055C9.22656 2.78414 9.23296 2.72148 9.23909 2.67587C9.24463 2.6347 9.24573 2.64182 9.23831 2.66663L7.32225 2.09329ZM8.85847 0.703027C8.12756 0.844414 7.53567 1.38007 7.32225 2.09329L9.23831 2.66663V2.66663L8.85847 0.703027ZM9.4734 0.666626C9.29791 0.666626 9.07005 0.662099 8.85847 0.703027L9.23831 2.66663C9.21289 2.67154 9.20592 2.66973 9.24743 2.66832C9.29342 2.66676 9.35641 2.66663 9.4734 2.66663V0.666626ZM10.5265 0.666626H9.4734V2.66663H10.5265V0.666626ZM11.1417 0.70306C10.93 0.662095 10.702 0.666626 10.5265 0.666626V2.66663C10.6435 2.66663 10.7065 2.66676 10.7525 2.66833C10.7941 2.66974 10.7871 2.67155 10.7617 2.66663L11.1417 0.70306ZM12.6777 2.09312C12.4642 1.38004 11.8725 0.844487 11.1417 0.70306L10.7617 2.66663L10.7617 2.66662L12.6777 2.09312ZM12.3333 9.99996C12.3333 11.2886 11.2887 12.3333 9.99999 12.3333V14.3333C12.3932 14.3333 14.3333 12.3932 14.3333 9.99996H12.3333ZM9.99999 7.66663C11.2887 7.66663 12.3333 8.7113 12.3333 9.99996H14.3333C14.3333 7.60672 12.3932 5.66663 9.99999 5.66663V7.66663ZM7.66666 9.99996C7.66666 8.71129 8.71132 7.66663 9.99999 7.66663V5.66663C7.60675 5.66663 5.66666 7.60673 5.66666 9.99996H7.66666ZM9.99999 12.3333C8.71132 12.3333 7.66666 11.2886 7.66666 9.99996H5.66666C5.66666 12.3932 7.60675 14.3333 9.99999 14.3333V12.3333Z" fill="#7A7A7A"/>
</svg>
